<svg xmlns="http://www.w3.org/2000/svg" xmlns:xlink="http://www.w3.org/1999/xlink" version="1.1" width="375" height="375" viewBox="0 0 375 375">
<defs>
<clipPath id="clip_0">
<path transform="matrix(.24,0,0,.24,0,0)" d="M0 0H1562.5V1562.5H0Z" fill-rule="evenodd"/>
</clipPath>
<clipPath id="clip_1">
<path transform="matrix(.24,0,0,.24,0,0)" d="M0 0H1562.5V1562.5H0Z" fill-rule="evenodd"/>
</clipPath>
<clipPath id="clip_2">
<path transform="matrix(.24,0,0,.24,0,0)" d="M557.1462 664.3033H1004.0212V898.6783H557.1462Z" fill-rule="evenodd"/>
</clipPath>
<clipPath id="clip_3">
<path transform="matrix(.24,0,0,.24,0,0)" d="M0 0H1562.5V1562.5H0Z" fill-rule="evenodd"/>
</clipPath>
</defs>
<g clip-path="url(#clip_0)">
<path transform="matrix(.75,0,0,.75,0,0)" d="M0 0H500V500H0Z" fill="#ffffff"/>
</g>
<g clip-path="url(#clip_1)">
<path transform="matrix(.75,0,0,.75,0,0)" d="M0 0H500V500H0Z" fill="#faf7f2"/>
</g>
<g clip-path="url(#clip_2)">
<path transform="matrix(.24793644,0,0,.24793644,133.82004,160.30055)" d="M299.498 98.083C297.91099 105.787 295.874 113.270999 291.19999 119.854999 283.09098 131.27899 272.495 139.982 261.07099 147.775 258.916 149.245 258.15 150.76399 258.19099 153.29 258.503 172.79599 258.62998 192.30399 258.99598 211.80899 259.04997 214.663 258.18998 215.65299 255.43997 216.249 224.45298 222.963 193.48197 222.028 162.46698 216.48999 159.81499 216.01599 159.17998 215.01499 159.17699 212.45299 159.15399 191.301 158.99098 170.14798 158.816 148.99698 158.80699 147.87499 158.586 146.57898 157.997 145.66399 150.465 133.97499 146.655 121.09099 145.525 107.34199 145.16899 103.013988 145.01599 98.66899 144.75299 94.027988 138.579 95.07699 132.596 96.09399 126.39599 97.14799 126.54199 98.36899 126.64699 99.34399 126.775989 100.31599 128.84699 115.830989 129.66599 131.35898 126.99699 146.88999 125.485988 155.67899 123.01899 164.16799 117.46399 171.34998 111.677989 178.83098 104.24699 182.85198 94.55999 180.48297 91.35299 179.69898 88.37499 177.98097 85.09699 176.60797 80.020999 181.55898 73.870998 182.76798 67.19599 179.81298 64.40899 178.57898 61.900995 176.63298 59.43599 174.78397 57.65199 173.44597 56.14999 171.73297 54.56199 170.22597 48.82699 173.85198 44.88899 173.88198 39.51399 170.01897 37.24299 168.38697 35.15099 166.40097 33.31799 164.28197 27.592989 157.66297 23.58699 149.98097 20.28299 141.94696 17.97399 136.33296 15.9739899 130.59296 13.8419899 124.92496 8.463989 125.72295 7.0089895 125.04696 4.41599 120.17096 1.4969897 114.68196 .14999008 108.73396 .02298975 102.56596-.08401025 97.36096-.14901027 91.96097 6.9469897 91.243968 6.6069896 86.59796 6.1529896 82.243968 6.0049898 77.87997 5.8539898 73.41897 5.83199 68.939968 6.0589897 64.48396 6.4249899 57.274965 7.42999 50.157964 10.27599 43.425966 12.342989 38.534967 15.92299 35.019968 21.16899 34.534967 25.38099 34.145967 26.67199 32.035966 28.054989 28.570965 32.397989 17.690964 38.44799 13.902965 49.18199 14.676965 49.971994 13.412965 50.75799 12.085964 51.60799 10.801965 59.104-.52099999 70.244-3.077 81.93 3.903 89.134 8.206 94.482 14.418 99.189 21.204 108.535 34.679 114.62601 49.656999 119.313 65.266 119.72 66.619998 120.187007 67.957 120.592 69.197 129.292 67.789 137.667 66.480998 146.01001 64.993999 146.71302 64.868999 147.576 63.603998 147.72801 62.754999 149.12302 54.971998 150.309 47.150999 151.69202 39.364999 152.98702 32.07 156.18602 25.860999 162.79203 21.971999 168.67203 18.509999 174.76903 18.052998 180.85503 21.470999 185.97603 13.167998 199.76303 8.513999 210.84703 15.256998 221.08403 5.004998 235.13004 4.8339979 247.90402 14.640998 250.42102 13.748998 252.73703 12.505998 255.18503 12.135998 265.46403 10.581998 273.61503 14.214998 279.47505 22.815999 283.12504 28.173998 285.09104 34.196 286.52503 40.469999 286.894 42.082998 287.87403 44.092 289.19203 44.864999 297.789 49.908998 302.949 56.741998 301.643 67.334 305.38203 68.042 308.84 68.697 312.415 69.374 312.743 68.333 313.025 67.482 313.28 66.622 317.516 52.332 322.876 38.520006 330.792 25.811 335.791 17.785 341.51499 10.375001 349.41499 4.9380018 361.65098-3.4819985 373.809-1.0239983 381.83598 11.444002 382.56297 12.573002 383.27397 13.711002 383.95997 14.792002 392.17198 13.293001 398.05998 16.599 402.20097 23.191002 403.92597 25.938002 405.09196 29.054 406.33695 32.075 406.84696 33.312 407.35197 33.911 408.80796 33.987 416.04396 34.364 420.89796 38.029 423.32298 44.874 427.55998 56.831 427.51197 69.201007 426.83897 81.622 426.66697 84.792 426.29798 87.950008 426.02397 91.072 431.88597 93.198 433.01496 94.75 433.04795 101.121 433.07896 107.305 431.84394 113.26 429.24894 118.886 426.60795 124.608 425.20994 125.406 418.95994 125.046009 418.73295 125.691 418.51594 126.37401 418.25495 127.04101 415.53596 133.99102 413.09495 141.06801 410.01194 147.85301 406.49494 155.59401 402.08793 162.87102 395.52293 168.52602 389.51594 173.70001 385.19493 174.10102 378.41593 170.34102 363.54994 183.44602 359.26893 184.29203 347.4099 176.45302 346.63493 176.91602 345.86393 177.40302 345.0689 177.84702 334.9439 183.50402 324.6919 182.09502 317.2439 173.19002 313.9279 169.22602 311.28489 164.40702 309.4459 159.55702 303.9709 145.10903 303.81489 129.95603 304.78089 114.776027 305.14988 108.97402 305.90089 103.19602 306.50288 97.15903 304.35087 96.786029 302.23588 96.41903 299.86888 96.009029 299.689 97.022 299.607 97.555 299.498 98.083ZM183.898 63.043C183.235 61.455999 182.73799 59.797 182.20099 58.159 181.523 56.087 180.27199 55.413003 178.178 56.479 179.295 60.172 180.366 63.866 181.55699 67.520999 181.79399 68.24899 182.493 68.826999 182.97899 69.474 180.71599 69.235 178.24098 69.499 176.23 68.656 171.72299 66.767 169.26999 62.672998 166.943 58.600999 166.36 57.580999 165.74399 56.579999 164.87999 55.740999 167.329 61.529 169.54499 67.533 175.25199 71.104 178.34999 73.043 181.72199 72.689998 184.93999 71.139 187.10298 70.096 188.00299 68.266 187.497 65.949 185.187 55.365999 182.818 44.795999 180.448 34.225999 180.27 33.431 179.935 32.67 179.648 31.901999 177.066 24.995999 172.84 23.397999 166.37 26.873999 162.75699 28.814999 160 32.376 159.07599 35.916 160.78499 34.389 162.609 32.074 164.99298 30.824002 167.32698 29.601002 170.23099 29.463002 172.88498 28.848002 172.96198 29.127 173.03899 29.405 173.11598 29.684002 171.66199 30.319003 170.16698 30.876002 168.76598 31.610003 167.42697 32.312005 166.18498 33.199 165.09297 34.502004 166.77297 34.201005 168.45398 33.901 170.13397 33.600004 166.77698 36.267004 167.64397 39.231004 169.26398 42.211004 170.74198 44.929 172.24098 47.644 173.90798 50.248 174.53498 51.227 175.65697 51.889 176.63698 52.772 175.78897 53.882 172.87499 54.381 174.28998 57.353 175.94197 54.29 178.03697 53.035 180.62398 53.477 181.15598 53.568 181.70398 53.710004 182.18099 53.954004 185.36798 55.590005 187.21799 66.088008 184.73299 68.618007 184.27298 69.086009 183.50399 69.25101 182.87799 69.555 184.66 67.611 184.908 65.46 183.898 63.043ZM281.856 73.009C279.737 74.884 277.46598 75.304 275.142 74.93301 273.12 74.61001 271.971 75.435009 271.271 77.08001 270.205 79.58901 269.185 82.12501 268.31 84.70501 267.216 87.92701 268.332 90.80101 270.085 93.48201 271.03 94.92801 272.072 96.31201 273.438 98.24601 267.525 95.90701 264.24699 91.88101 262.305 86.54801 262.04499 86.599018 261.78599 86.65001 261.526 86.70101 261.835 90.19101 262.143 93.68001 262.458 97.235019 260.052 94.65801 259.469 91.39702 259.388 87.946018 259.149 87.89802 258.911 87.85001 258.672 87.80102 258.02799 89.85302 257.384 91.905017 256.55799 94.540019 256.103 92.78402 255.74799 91.41402 255.49698 90.444019 251.85797 90.65002 248.17398 90.85802 243.98699 91.09502 234.53099 104.94102 227.81899 107.78602 216.85898 101.96101 210.99198 106.02101 208.22998 112.152019 206.02999 118.68801 205.58699 111.82901 208.00499 105.90901 211.69998 100.91201 208.12598 100.91201 204.46999 101.03801 200.82599 100.87801 196.74799 100.70001 193.50598 98.65601 191.094 95.49001 189.903 93.92701 188.761 93.49501 186.961 94.166019 178.438 97.34202 169.884 100.43501 161.386 103.67402 160.735 103.92202 159.873 105.24702 160.042 105.77302 163.945 117.96402 169.449 129.17002 180.75 136.30402 188.33 141.08802 196.842 142.50402 205.66501 142.02002 207.628 141.91202 208.91802 142.37102 210.17002 143.78902 211.169 144.92002 212.45601 145.79701 213.87102 146.61202 210.36002 142.74202 207.85602 138.48201 207.56502 132.89801 213.52301 141.35 222.13101 142.20601 230.92102 141.449 247.88202 139.988 262.34803 132.57501 275.86103 122.46901 287.941 113.43501 293.38703 101.39601 294.536 86.95701 295.164 79.06301 295.32203 71.13101 295.66603 63.215009 295.7 62.42801 295.553 61.633008 295.44804 60.300008 294.58604 61.416009 294.03303 62.132009 293.48005 62.848009 295.80006 56.643007 291.87104 53.843008 287.46104 51.148008 285.61204 50.018007 284.01603 48.470006 282.32905 47.083009 280.06504 45.223009 277.70606 43.590009 274.44706 43.35801 274.24705 44.65401 274.13307 45.806009 273.88606 46.92901 272.87705 51.527009 269.40406 53.88001 264.99406 52.46301 262.18205 51.55901 259.38307 50.188009 257.00706 48.444009 252.47205 45.114007 251.46706 40.17901 253.86905 35.064008 254.63005 33.444009 255.64905 31.944008 256.55305 30.384007 253.55304 29.410006 251.36504 30.631007 250.13704 34.00601 248.59404 38.24601 249.09804 42.49701 250.50405 46.60801 254.13704 57.22901 261.72105 64.13801 271.90504 68.24301 276.35704 70.03801 281.05305 69.141017 285.69203 67.96501 284.00404 70.405017 282.233 71.28701 276.708 73.00801 278.298 73.009 279.892 73.009 281.856 73.009ZM63.39 173.181C71.433 179.612 77.682 179.037 84.788 171.307 85.995 172.10501 87.238 172.95801 88.511 173.764 97.65 179.554 106.384 178.36101 112.593 170.477 112.859 170.139 113.067 169.755 113.548007 169.014 105.976009 171.09001 100.89101 167.36 96.312007 162.667 88.603008 154.76702 83.566 145.14002 79.40501 135.091 67.74901 106.941 61.917009 77.653 62.974008 47.122 63.240007 39.451 64.159008 31.813002 66.92901 24.604002 68.184009 21.338002 69.92201 18.117003 72.07001 15.367002 75.297008 11.235002 79.69701 10.357001 84.62601 12.073002 85.19201 12.270001 85.769008 12.439002 86.43101 12.388001 80.877 7.17 74.884 2.586 66.683 4.103 58.416 5.632 54.66 12.328001 51.211999 19.187 50.814 19.163 50.432 19.23 50.124998 19.107 43.388998 16.404 37.095998 19.56 33.725 25.675 31.673998 29.396 30.238999 33.457 28.385998 37.687 27.671998 37.687 26.510998 37.679 25.350998 37.688 19.254998 37.739999 15.024998 40.315 13.344998 46.127 11.737998 51.689 10.289998 57.471 10.018998 63.214998 8.605998 93.175998 14.433998 121.77899 27.635998 148.738 30.130997 153.83301 33.811998 158.37201 37.160997 163.01201 38.302995 164.59401 40.007997 165.84001 41.629999 166.99501 46.059 170.14801 49.443998 169.854 53.388998 166.14402 53.846998 165.71302 54.219999 165.19301 54.518999 164.84502 57.677003 167.838 60.344 170.746 63.39 173.181ZM378.546 165.078C383.262 170.45801 387.83299 170.703 394.039 164.878 400.965 158.377 405.31703 150.12201 408.891 141.513 419.047 117.048999 424.235 91.576007 423.112 65.042 422.857 59.017 421.594 52.929 419.981 47.094 418.041 40.074 413.809 37.528 406.498 37.708 405.776 37.726 405.05198 37.71 404.409 37.71 403.175 34.474 402.169 31.248999 400.74 28.222 398.542 23.565 395.538 19.424 390.059 18.512001 387.469 18.081002 384.70399 18.704 381.689 18.868002 378.052 12.026002 374.108 4.6520025 364.665 3.9070016 356.90803 3.2950016 351.325 7.812001 345.502 13.033002 346.34803 12.882002 346.587 12.885002 346.786 12.797002 353.389 9.856002 358.6 11.3410019 362.62403 17.361002 365.93403 22.313002 367.50904 27.925004 368.52403 33.688005 371.436 50.22 370.46003 66.741008 367.96803 83.209 364.87303 103.660999 359.50404 123.465 350.39503 142.131 346.62504 149.857 342.342 157.308 336.04304 163.282 333.70805 165.496 330.91004 167.47499 327.96705 168.718 325.61006 169.713 322.71406 169.431 320.18504 169.702 323.98304 178.741 334.95603 179.591 348.23603 171.316 348.81105 171.94499 349.40803 172.605 350.01304 173.258 354.12605 177.698 359.35304 179.11699 364.59004 176.137 368.62904 173.83899 372.04005 170.424 375.66703 167.42899 376.56105 166.69098 377.20704 165.65499 377.946 164.78099 378.234 164.921 378.439 164.956 378.546 165.078ZM248.987 210.299C251.548 209.736 252.208 208.681 252.192 206.107 252.077 187.969 252.156 169.82999 252.166 151.691 252.166 151.16699 252.084 150.64299 252.015 149.806 240.176 154.688 227.881 155.655 214.66699 155.606 214.66699 164.799 214.66699 173.836 214.66699 182.87201 214.34999 182.871 214.03299 182.871 213.71599 182.87001 213.26299 174.824 212.69199 166.781 212.426 158.729 212.34 156.112 211.51399 155.14801 208.946 155.419 207.432 155.57901 205.887 155.44802 204.004 155.44802 203.688 170.62502 203.374 185.71901 203.06 200.81201 202.93399 200.82302 202.808 200.83402 202.68199 200.84502 201.928 194.48802 201.16399 188.13301 200.42299 181.77402 199.45299 173.44902 198.48799 165.12403 197.55399 156.79502 197.38399 155.28302 197.00099 154.15901 195.14199 154.23001 194.43099 154.257 193.71199 153.96901 192.99199 153.854 187.18099 152.922 186.93 152.921 186.84999 159.073 186.65299 174.201 186.70899 189.332 186.66599 204.461 186.65898 206.816 186.66498 209.17 186.66498 211.837 207.825 213.531 228.461 214.812 248.987 210.299ZM225.079 78.399C225.32199 83.324008 225.558 88.096 225.80699 93.128009 224.13199 92.981 222.9 92.87201 221.66899 92.76401 221.579 92.96701 221.489 93.170009 221.39899 93.37301 223.33399 94.24201 225.26799 95.11101 227.20299 95.98101 227.19199 96.10701 227.18099 96.23301 227.16999 96.35901 225.43999 96.24201 223.70998 96.12501 221.97998 96.00701 221.85999 96.20301 221.74098 96.40001 221.62099 96.59601 223.15799 97.392009 224.61399 98.55401 226.24799 98.91701 231.13399 100.00001 236.43999 97.504009 238.71099 93.02701 240.80799 88.893009 241.83298 84.65201 240.03598 79.91601 239.06499 77.35701 238.69098 74.34001 238.91599 71.601009 239.861 60.084009 241.10199 48.590005 242.305 37.095006 242.646 33.838006 243.127 30.587006 243.73 27.368004 244.092 25.436005 244.816 23.571003 245.476 21.341004 242.487 17.456004 238.611 14.340004 233.035 14.144003 229.946 14.035003 226.84601 14.046003 223.757 14.160003 219.54901 14.315002 217.104 16.969002 215.327 20.608002 219.728 15.480001 225.159 14.375002 231.383 16.219002 227.458 16.821002 222.808 15.566002 221.17499 20.343003 223.75699 20.343003 226.90499 20.343003 230.32999 20.343003 229.91999 20.664002 229.79799 20.832003 229.64499 20.870003 222.456 22.623003 221.92499 21.726004 221.581 30.362004 221.11699 41.999006 221.493 53.669004 221.536 65.324008 221.54199 66.953 221.707 68.58201 221.80899 70.40101 224.17899 70.61301 226.47499 70.81801 228.84 71.02901 225.754 72.281009 222.866 73.452 219.978 74.62401 220.063 74.69701 220.147 74.77001 220.232 74.84301 223.859 74.53001 227.493 73.91401 231.11299 73.98501 235.34299 74.06801 236.60999 75.37401 237.129 79.51101 237.502 82.47601 237.732 85.50201 237.58699 88.47901 237.409 92.12101 235.46999 94.10301 231.65099 95.01801 235.28299 93.42701 235.50798 90.347019 235.34499 87.110019 235.25399 85.292018 235.16298 83.472019 235.00399 81.65801 234.59099 76.96401 234.05998 76.38101 229.23999 76.65801 226.63399 76.808017 224.062 77.530017 221.47399 77.99401 221.53099 78.294017 221.58798 78.59401 221.64499 78.89301 222.689 78.742 223.732 78.592 225.079 78.399ZM199.78 21.454C195.786 23.101 191.736 24.771 187.686 26.441 187.792 26.894 187.897 27.347 188.003 27.799 190.77101 27.799 193.539 27.799 196.744 27.799 193.477 29.192 190.69301 30.379 187.91 31.567 187.95401 31.795 187.99701 32.023 188.041 32.251 188.764 32.319 189.48601 32.387 190.238 32.458 192.322 44.916 194.408 57.381 196.516 69.981 198.23001 69.981 199.748 69.981 202.028 69.981 198.851 71.807 195.992 73.013 194.699 76.555 201.40201 71.59 207.265 71.263 210.084 75.4 213.794 80.844 213.518 89.391 209.28 91.859 212.424 88.228008 210.6 84.514 209.606 80.904 207.886 74.655 202.679 73.421 197.798 77.981 198.26001 78.404 199.013 78.751 199.138 79.254009 199.597 81.102008 199.797 83.01301 200.189 84.880008 200.55899 86.64001 201.04799 88.37501 201.538 90.33 200.594 90.33 199.84099 90.33 199.088 90.33 199.025 90.503 198.963 90.676 198.9 90.849 200.265 91.571 201.62999 92.294 202.995 93.016 202.96599 93.128 202.937 93.24 202.907 93.352 201.374 93.033 199.841 92.714 198.282 92.39 197.386 95.376 199.645 96.376 201.727 96.766 205.738 97.517 209.57701 96.534 212.783 93.959 214.852 92.297 215.298 89.834 215.112 87.255 213.958 71.256999 212.773 55.259996 211.691 39.256998 211.402 34.985998 211.457 30.691998 211.29999 26.409996 211.26799 25.534996 211.26799 24.460997 210.79 23.831997 207.85599 19.973998 203.985 17.777997 199.025 18.095997 193.88399 18.425997 189.29399 19.954997 186.448 24.756997 190.751 22.816 195.103 21.219 199.78 21.454ZM164.446 67.842C163.812 67.291 162.679 66.969 161.83 67.05801 141.771 69.15501 121.961 72.726009 102.275 77.06601 100.178 77.52801 99.297008 78.51301 99.093 80.45401 98.535 85.77601 99.536 90.76901 102.131008 95.46701 103.205 97.41201 104.54201 97.96101 106.82001 97.51401 120.854007 94.76201 134.876 91.906009 148.98902 89.62101 159.14801 87.97601 169.44301 87.16301 179.67801 85.98701 180.66802 85.87301 181.66602 85.81901 182.74 85.73 183.056 83.721 182.17 83.296009 180.448 83.445 159.623 85.247 139.019 88.492 118.584 92.847 115.020999 93.606 111.433 94.269 107.898 95.142 105.765 95.669 104.313 95.111 103.493007 93.113 102.578 90.882999 101.755008 88.616 101.082 86.862 103.102 86.862 104.806 87.122 106.405 86.821 120.728 84.129 134.996 81.123 149.358 78.663 156.98 77.358 164.756 76.949008 172.462 76.136 172.95401 76.084 173.448 76.041 173.423 76.044 170.528 73.376 167.549 70.538 164.446 67.842ZM301.667 80.248C301.701 80.869 302.52799 81.846 303.137 81.977 311.505 83.777 319.889 85.508998 328.29899 87.1 329.33198 87.295 330.53599 86.583 331.847 86.243 331.576 87.426998 331.37 88.76199 330.961 90.033 329.313 95.158 328.286 95.741 323.123 94.667 316.43598 93.276 309.75599 91.849 303.05299 90.541 302.14299 90.363 301.11698 90.781 300.14399 90.923007 300.16798 91.29301 300.192 91.664 300.215 92.034008 304.099 92.843 307.983 93.65301 311.86799 94.45901 316.951 95.51401 322.02 96.64701 327.12998 97.54301 328.04499 97.70301 329.563 97.18301 330.07099 96.462009 333.589 91.47401 334.70298 85.828 333.74998 79.853008 333.59599 78.88901 332.39299 77.538 331.46397 77.337009 322.03096 75.29401 312.55497 73.451007 303.08998 71.561008 302.74497 71.492008 302.38298 71.512 301.59599 71.463008 301.598 74.457 301.511 77.359 301.667 80.248ZM270.9 28.705C271.146 28.607 271.392 28.509 271.637 28.411 273.125 32.202 274.61399 35.993 276.28 40.237 277.07099 40.496 278.533 40.974 279.996 41.452 280.764 28.41 268.307 15.969999 256.433 18.09 254.34302 18.463 252.41202 19.722 250.65201 21.173 252.335 20.809 254.01902 20.444 255.70201 20.08 251.352 23.806 250.779 24.758 251.143 28.154999 257.151 26.574 263.55903 28.078 271.777 37.467 271.485 34.546 271.192 31.625 270.9 28.705ZM313.23 98.597C312.756 102.36 312.199 106.006 311.853 109.673007 310.60099 122.951007 310.012 136.23001 313.258 149.33101 313.971 152.21 315.10099 155.08 316.556 157.66301 320.052 163.869 325.674 164.94101 331.145 160.33202 333.75099 158.13701 336.145 155.46701 337.939 152.58101 341.22999 147.287 344.00599 141.673 346.996 136.19202 346.727 136.04602 346.457 135.89902 346.188 135.75302 345.155 137.74903 344.30299 139.86803 343.05299 141.71802 339.649 146.75302 336.53898 152.09803 332.464 156.54402 326.095 163.49202 320.395 162.06803 317.28099 153.16602 314.16099 144.24701 313.908 134.91703 314.33 125.624019 314.68 117.90601 315.649 110.21602 316.347 102.514019 316.43598 101.53101 316.547 100.55102 316.671 99.34001 315.42 99.069 314.542 98.88 313.23 98.597ZM116.382 99.323C116.922008 104.006 117.527 108.584 117.965007 113.17799 119.076007 124.82099 119.567 136.478 117.116008 148.012 116.44601 151.168 115.285 154.33499 113.73501 157.161 111.48401 161.265 107.76301 162.22 104.074008 159.342 100.68301 156.69699 97.66 153.415 95.05601 149.97499 92.27501 146.30199 90.17501 142.11399 87.78901 138.16999 87.74101 138.24898 87.559009 138.42598 87.59501 138.51299 90.69301 145.94499 94.32701 153.068 100.07901 158.85498 101.34101 160.12499 102.89701 161.19199 104.48601 162.03199 108.12501 163.95598 111.86801 163.54698 114.354007 160.30098 116.461009 157.54898 118.232 154.30399 119.25 150.99999 122.571 140.21599 122.462 129.05899 121.83 117.93698 121.469 111.58998 120.636 105.26898 119.981 98.58798 118.511 98.889 117.552 99.085 116.382 99.323ZM361.95 29.056C361.286 26.722 360.297 24.401 359.03 22.335 356.044 17.463 350.922 16.118 346.40299 19.579998 342.78199 22.353999 339.49 25.807999 336.81098 29.508 329.98799 38.934 321.86198 58.75 319.369 70.797 320.373 71.022998 321.38499 71.251 322.556 71.515 324.191 66.472 325.718 61.544 327.385 56.664 330.54103 47.422 334.24903 38.402 339.79103 30.307002 341.82304 27.339 344.272 24.514 347.02503 22.216002 351.20704 18.724 355.52503 19.491002 357.82704 24.445002 359.94303 28.999 361.40504 33.978 362.34904 38.923 363.36705 44.258 363.44905 49.772 363.99003 55.766 364.423 46.483 364.399 37.662 361.95 29.056ZM71.785 33.271C72.36 30.035 73.788 26.813 75.441 23.937 77.907009 19.646 81.875 18.688 85.536 21.961 89.207 25.244 92.515 29.179 95.112 33.366 101.835 44.204004 105.792 56.262 109.42 68.412 109.703998 69.362 109.993 70.311008 110.31 71.363 111.026 71.292 111.649997 71.266 112.258998 71.159 112.686 71.084 113.093997 70.898998 113.951 70.618999 112.008998 64.834 110.288997 59.095998 108.162998 53.512994 104.06899 42.758996 99.48799 32.222993 91.55699 23.593993 90.09499 22.002993 88.38699 20.530993 86.54399 19.414994 81.52099 16.371994 76.48599 17.497994 73.79999 22.731993 71.96399 26.309994 70.53799 30.331994 70.01599 34.298994 69.08499 41.37899 68.97599 48.566995 68.522998 55.70999 68.603 55.70299 68.683 55.694993 68.76399 55.687994 69.734 48.209 70.467 40.688 71.785 33.271ZM95.284 63.538C92.642 63.434 91.112 65.395 90.690998 67.508998 89.758998 72.19299 88.771999 76.992 88.857997 81.72499 89.01299 90.25899 91.09 98.51299 95.088 106.119998 96.506999 108.81899 98.323 111.451 100.477 113.591999 104.075 117.16799 107.988 115.72199 108.981998 110.714 109.22099 109.507999 109.287998 108.268 109.031 106.932 108.370998 108.388 107.816 109.904 107.024 111.284 105.975 113.111 104.478008 113.432 103.11 111.684 101.943 110.193 100.845 108.573 100.091 106.846 95.29201 95.855 92.86 84.354007 93 72.341999 93.014 71.16599 93.155 69.97099 93.408 68.823 94.209 65.181 95.695 64.687999 98.713 66.99 99.074 67.266 99.423 67.557 99.778 67.840999 99.04 65.618 97.876 63.64 95.284 63.538ZM327.269 115.204C330.81303 116.445 333.048 113.596 334.87303 111.116008 340.36604 103.648 342.92903 94.994 343.76103 85.942 344.238 80.759 343.566 75.465007 343.321 70.225 343.28004 69.353 342.85 68.469 342.46903 67.651 341.53404 65.646 340.53804 63.541 337.90104 63.539 335.26203 63.537004 334.00205 65.461 332.88203 67.541 333.13703 67.622 333.303 67.739 333.402 67.697 334.922 67.062 336.433 66.407 337.946 65.756 338.62303 67.475 339.75404 69.156 339.89903 70.918 340.62303 79.744998 338.92204 88.328 336.58003 96.772998 335.61204 100.260997 334.16304 103.619998 332.86204 107.009998 332.47404 108.02 332.00404 109.078998 331.29603 109.868 330.308 110.966999 329.06004 111.83299 327.924 112.798999 326.967 111.673 325.928 110.603 325.083 109.397998 324.588 108.69299 324.401 107.771999 324.075 106.948 323.936 110.228 323.612 113.923 327.269 115.204ZM255.096 39.058C254.793 40.060998 255.512 41.975 256.392 42.626 259.651 45.039 263.037 47.36 266.639 49.203 269.263 50.545 272.587 47.545 272.1 44.125 271.80003 42.015 270.75703 39.667 269.299 38.139 266.38304 35.084 262.953 32.519 259.11003 29.213002 257.491 33.055 256.028 35.977 255.096 39.058ZM247.779 65.116C247.779 69.715 247.779 74.105998 247.779 78.757999 247.00202 78.588 246.27701 78.42899 244.841 78.114 245.761 79.049999 246.322 79.518 246.752 80.085 247.197 80.673 247.515 81.357 247.88899 81.998 247.278 82.339008 246.66699 82.68 245.96999 83.069 248.16098 84.72 250.51898 84.401 252.85599 83.438 258.44 81.137 260.681 75.50101 261.051 70.535 261.09199 69.986 260.314 69.244 259.749 68.809009 258.76499 68.05301 257.649 67.466 256.792 66.934009 256.435 70.560009 256.194 74.13501 255.659 77.66501 255.521 78.57701 254.461 79.350009 253.506 79.936008 256.251 75.623 255.082 71.172008 254.194 66.928 253.451 63.378004 248.185 62.871004 244.41 66.344 245.913 65.795 246.721 65.501 247.779 65.116ZM423.471 106.735C424.707 106.735 425.844 106.735 427.285 106.735 425.796 111.675 426.02403 117.495 420.353 120.513 421.794 121.91 422.708 122.025 423.836 120.564 424.714 119.427 425.453 118.138 426.022 116.817 428.392 111.315 429.573 105.561008 429.204 99.558 428.995 96.164 428.57603 95.748 425.504 95.248 424.831 99.053 424.186 102.699 423.471 106.735ZM6.075 106.798C7.134 106.798 8.2 106.798 9.519 106.798 8.83 102.784999 8.203 99.129 7.566 95.423 5.46 95.04 4.33 95.875 4.092 97.854 3.1339999 105.80299 4.673 113.24 8.814 120.106998 9.876 121.868999 11.287001 121.967998 13.152 120.574 9.181 118.97 6.081 112.602 6.075 106.798ZM243.824 63.161C246.468 62.569 249.03202 61.996 251.67201 61.405 250.24 58.488 248.67401 55.298 247.00402 51.896 245.752 55.814 248.028 60.508 243.824 63.161Z"/>
<path transform="matrix(.24793644,0,0,.24793644,133.82004,160.30055)" d="M276.703 73.009C278.297 73.009 279.892 73.009 281.85603 73.009 279.73704 74.884 277.466 75.304 275.14204 74.93301 273.12004 74.61001 271.97105 75.435009 271.27104 77.08001 270.20503 79.58901 269.18504 82.12501 268.31004 84.70501 267.21604 87.92701 268.33204 90.80101 270.08503 93.48201 271.03004 94.92801 272.07203 96.31201 273.43803 98.24601 267.52503 95.90701 264.247 91.88101 262.30503 86.54801 262.045 86.599018 261.786 86.65001 261.52604 86.70101 261.83503 90.19101 262.14305 93.68001 262.45805 97.235019 260.05204 94.65801 259.46903 91.39702 259.38804 87.946018 259.14903 87.89802 258.91105 87.85001 258.67204 87.80102 258.028 89.85302 257.38404 91.905017 256.558 94.540019 256.10304 92.78402 255.74802 91.41402 255.49701 90.444019 251.858 90.65002 248.17401 90.85802 243.98702 91.09502 234.53102 104.94102 227.81902 107.78602 216.85901 101.96101 210.992 106.02101 208.23001 112.152019 206.03002 118.68801 205.58702 111.82901 208.00502 105.90901 211.70001 100.91201 208.126 100.91201 204.47002 101.03801 200.82602 100.87801 196.74802 100.70001 193.50601 98.65601 191.09403 95.49001 189.90303 93.92701 188.76103 93.49501 186.96103 94.166019 178.43804 97.34202 169.88404 100.43501 161.38603 103.67402 160.73503 103.92202 159.87303 105.24702 160.04204 105.77302 163.94504 117.96402 169.44904 129.17002 180.75003 136.30402 188.33003 141.08802 196.84203 142.50402 205.66504 142.02002 207.62804 141.91202 208.91805 142.37102 210.17005 143.78902 211.16904 144.92002 212.45604 145.79701 213.87105 146.61202 210.36005 142.74202 207.85605 138.48201 207.56505 132.89801 213.52304 141.35 222.13105 142.20601 230.92105 141.449 247.88205 139.988 262.34806 132.57501 275.86106 122.46901 287.94105 113.43501 293.38706 101.39601 294.53605 86.95701 295.16404 79.06301 295.32206 71.13101 295.66606 63.215009 295.70005 62.42801 295.55305 61.633008 295.44807 60.300008 294.58607 61.416009 294.03306 62.132009 293.48008 62.848009 295.80009 56.643007 291.87107 53.843008 287.46107 51.148008 285.61207 50.018007 284.01606 48.470006 282.32908 47.083009 280.06507 45.223009 277.7061 43.590009 274.44709 43.35801 274.24708 44.65401 274.1331 45.806009 273.88609 46.92901 272.87709 51.527009 269.40409 53.88001 264.99409 52.46301 262.18208 51.55901 259.3831 50.188009 257.00709 48.444009 252.47208 45.114007 251.46709 40.17901 253.86908 35.064008 254.63008 33.444009 255.64908 31.944008 256.55308 30.384007 253.55307 29.410006 251.36507 30.631007 250.13707 34.00601 248.59407 38.24601 249.09807 42.49701 250.50408 46.60801 254.13707 57.22901 261.72108 64.13801 271.90507 68.24301 276.35707 70.03801 281.05308 69.141017 285.69206 67.96501 284 70.406 282.229 71.288 276.703 73.009Z" fill="#f5f0e9"/>
<path transform="matrix(.24793644,0,0,.24793644,133.82004,160.30055)" d="M53.39 166.143C49.445 169.85301 46.059999 170.14801 41.631 166.994 40.009 165.839 38.305 164.59401 37.162004 163.011 33.812005 158.371 30.132002 153.832 27.637003 148.737 14.435 121.779 8.607 93.175 10.02 63.215 10.291 57.471 11.739 51.689 13.346001 46.127 15.025001 40.314 19.255002 37.739999 25.352002 37.688 26.512001 37.678 27.673 37.687 28.387001 37.687 30.240002 33.457 31.675002 29.397 33.726 25.675 37.097 19.56 43.39 16.404 50.126 19.106999 50.432 19.229998 50.815 19.161999 51.213 19.186999 54.661005 12.328999 58.417 5.631998 66.684 4.1029989 74.884998 2.5869988 80.878 7.1699988 86.431 12.388999 85.769 12.439999 85.192 12.270999 84.626 12.073999 79.697 10.358 75.297 11.235999 72.07 15.368 69.922 18.118 68.184 21.339 66.929 24.605 64.158008 31.814 63.239004 39.452 62.974 47.123 61.917 77.654 67.749 106.942 79.405 135.09201 83.566 145.141 88.604 154.768 96.312 162.66802 100.891 167.36101 105.976 171.09001 113.548 169.01502 113.06699 169.75601 112.85899 170.14002 112.592998 170.47801 106.383998 178.36202 97.65099 179.55501 88.510997 173.76502 87.23799 172.95902 85.994998 172.10602 84.787998 171.30802 77.68199 179.03801 71.433 179.613 63.38999 173.182 60.34399 170.74701 57.67699 167.839 54.519994 164.845 54.221 165.192 53.848 165.713 53.39 166.143ZM35.023 50.098C38.171998 49.025 41.105 51.397 41.042 54.715 40.505 82.959 46.429 110.07 55.506 136.613 56.181 138.58602 55.697004 139.837 54.118 140.759 50.984 142.588 47.779 142.97 44.537 140.675 44.470998 140.989 44.301 141.29001 44.389 141.45 49.344 150.484 54.170999 159.659 61.504999 167.037 64.256999 169.80501 67.724 172.149 71.284999 173.756 75.461 175.64099 79.377 173.93199 82.641 169.915 79.687999 166.63399 76.671 163.37999 73.762 160.03099 64.555 149.43 58.654 137.086 55.062 123.63199 49.295 102.03199 44.382 80.28299 44.746004 57.71099 44.922 46.798994 46.297 36.09899 50.129 25.81999 50.671 24.36699 50.353 23.70199 49.001005 23.09799 45.042005 21.33199 40.497 22.62599 37.989004 26.51099 34.710004 31.59099 33.439004 37.39499 32.320005 43.21899 31.703003 46.43199 31.265004 49.67999 30.753005 52.87199 32.222 51.888 33.495 50.619 35.023 50.098ZM30.529 149.215C33.962999 153.90599 37.259 158.759 41.197999 163.00299 46.015 168.19399 49.226999 167.818 53.925 162.74399 29.69 125.504 22.616 84.894 28.766 41.48 22.485 39.555 17.794 41.545 15.386001 47.618 14.165001 50.696 13.575001 54.023 13.261001 57.427003 14.420001 56.339 15.412001 54.868005 16.784 54.273004 18.133 53.688005 19.967001 53.618005 21.407002 54.001005 23.134 54.461004 23.227002 56.159006 23.118002 57.852006 21.307002 86.18001 26.368002 113.36101 36.775 139.667 37.260004 140.893 37.304 143.13301 36.56 143.809 35.398004 144.865 33.398004 145.324 31.727002 145.39 30.550002 145.436 29.331002 144.411 27.601002 143.623 28.701 145.762 29.387 147.655 30.529 149.215ZM87.694 156.67C83.573 150.373 80.298007 143.521 76.683 136.895 76.137 135.895 75.770999 134.797 75.286998 133.664 71.689998 138.594 69.13699 139.228 63.083997 136.384 64.451 139.061 65.510997 141.32901 66.737 143.503 71.826 152.52501 77.782 160.893 85.616 167.78 89.422 171.12599 93.601 173.81 98.71 174.80699 101.974 175.44399 104.563999 174.39099 107.048999 172.01599 98 169.945 92.318 163.736 87.694 156.67ZM59.316 48.263C59.981004 43.302003 60.488004 38.370004 61.334005 33.497 62.462 27.006 64.227008 20.692002 68.09801 15.197002 71.00101 11.077003 73.201007 9.695003 78.05601 8.746002 74.713 5.34 67.312 4.945 62.471 8.244 60.572004 9.538 58.839 11.346001 57.596 13.282001 52.708 20.901001 50.96 29.567002 49.811 38.376 49.343004 41.965 49.04 45.576 48.588 49.879999 52.461 45.33 54.409 45.131 59.316 48.263Z" fill="#f5f0e9"/>
<path transform="matrix(.24793644,0,0,.24793644,133.82004,160.30055)" d="M375.667 167.431C372.03999 170.426 368.629 173.84 364.59 176.139 359.353 179.119 354.126 177.699 350.013 173.26001 349.408 172.60701 348.811 171.947 348.236 171.31801 334.956 179.593 323.983 178.742 320.185 169.70401 322.714 169.43302 325.611 169.71501 327.967 168.72002 330.91 167.47801 333.708 165.49903 336.043 163.28401 342.342 157.31002 346.624 149.85901 350.395 142.13301 359.504 123.46701 364.873 103.66301 367.968 83.21101 370.46 66.74301 371.43598 50.222017 368.524 33.690015 367.50898 27.928013 365.934 22.315014 362.624 17.363015 358.599 11.343014 353.388 9.858014 346.78599 12.799014 346.58699 12.887014 346.348 12.884014 345.50199 13.035014 351.32499 7.813014 356.908 3.2960139 364.66499 3.9090138 374.10697 4.6540138 378.05198 12.028014 381.68898 18.870015 384.70497 18.707015 387.46998 18.084015 390.05897 18.514014 395.53898 19.425013 398.54197 23.567013 400.73997 28.224015 402.16798 31.251015 403.17497 34.476015 404.40898 37.712015 405.05198 37.712015 405.77598 37.727014 406.49797 37.710016 413.80897 37.530015 418.04096 40.076017 419.98097 47.096017 421.59397 52.931016 422.85697 59.019018 423.11198 65.044017 424.23399 91.57901 419.04698 117.05101 408.89097 141.51502 405.31697 150.12401 400.96498 158.37902 394.03898 164.88002 387.83198 170.70502 383.26197 170.46002 378.54597 165.08002 378.43998 164.95902 378.23497 164.92302 377.94596 164.78601 377.207 165.657 376.56 166.693 375.667 167.431ZM387.074 42.686C389.224 56.204004 388.629 69.775 386.585 83.254 384.072 99.83099 380.707 116.235 375.244 132.136 370.94 144.664 363.957 155.545 354.776 165.059 353.272 166.61801 351.859 168.265 350.418 169.85501 353.58399 174.091 357.88 175.68302 362.442 173.49901 365.73799 171.921 368.93998 169.712 371.495 167.11002 378.904 159.56201 383.748 150.22202 388.663 141.56702 386.149 141.63402 383.516 142.08702 381.02299 141.67902 377.51499 141.10402 376.75199 139.07701 377.869 135.74402 386.567 109.777019 392.396 83.28802 391.982 55.724023 391.942 53.03902 392.448 50.966024 395.147 50.12702 397.688 49.33702 399.79103 50.216024 401.327 52.404024 401.467 52.603025 401.661 52.763025 402.212 53.34402 401.053 44.10802 399.902 35.38202 395.664 27.472022 392.851 22.222022 387.893 20.995022 382.827 23.881022 384.305 30.302 386.079 36.432 387.074 42.686ZM381.752 165.141C384.71903 167.214 386.928 167.214 389.717 164.93001 396.618 159.279 401.423 152.06801 405.375 143.65001 403.859 144.36101 402.804 145.001 401.66 145.35901 399.69 145.977 397.89 145.62201 396.42503 144.01702 395.07603 142.53902 395.575 141.11002 396.22303 139.48702 406.73 113.13301 411.80903 85.86902 409.87605 57.444017 409.65205 54.146017 412.77104 52.263017 415.86906 54.010019 417.31907 54.82802 418.44706 56.21702 419.66807 57.29902 420.10807 53.275018 417.97306 46.537019 415.22306 43.664018 412.05406 40.353017 408.20606 40.375017 404.21208 41.326017 410.44007 84.85101 403.32008 125.349018 379.03907 162.88002 379.663 163.406 380.643 164.366 381.752 165.141ZM357.913 133.753C350.461 149.043 344.111 165.225 326.34199 172.38 328.40599 174.39 330.955 175.416 334.145 174.835 340.05299 173.759 344.692 170.438 348.896 166.44 357.58799 158.176 364.168 148.394 369.288 137.597 369.428 137.301 369.46 136.954 369.572 136.515 363.87 139.275 361.102 138.598 357.913 133.753ZM374.957 12.46C370.539 5.635 361.04 3.92 354.401 8.8619999 360.241 9.035999 363.58 12.618 366.145 17.076 370.513 24.667 371.942 33.109 372.916 41.654 373.163 43.822 373.331 45.999 373.51298 47.940999 375.45198 47.332998 377.42799 46.144998 379.29798 46.292 381.02799 46.427 382.64598 47.991 384.32298 48.932 383.086 36.503 382.217 23.675 374.957 12.46Z" fill="#f5f0e9"/>
<path transform="matrix(.24793644,0,0,.24793644,133.82004,160.30055)" d="M186.665 211.838C207.825 213.53099 228.461 214.812 248.987 210.299 251.548 209.736 252.208 208.681 252.192 206.107 252.077 187.969 252.156 169.82999 252.166 151.691 252.166 151.16699 252.084 150.64299 252.015 149.806 240.176 154.688 227.881 155.655 214.66699 155.606 214.66699 164.799 214.66699 173.836 214.66699 182.87201 214.34999 182.871 214.03299 182.871 213.71599 182.87001 213.26299 174.824 212.69199 166.781 212.426 158.729 212.34 156.112 211.51399 155.14801 208.946 155.419 207.432 155.57901 205.887 155.44802 204.004 155.44802 203.688 170.62502 203.374 185.71901 203.06 200.81201 202.93399 200.82302 202.808 200.83402 202.68199 200.84502 201.928 194.48802 201.16399 188.13301 200.42299 181.77402 199.45299 173.44902 198.48799 165.12403 197.55399 156.79502 197.38399 155.28302 197.00099 154.15901 195.14199 154.23001 194.43099 154.257 193.71199 153.96901 192.99199 153.854 187.18099 152.922 186.93 152.921 186.84999 159.073 186.65299 174.201 186.70899 189.332 186.66599 204.461 186.659 206.817 186.665 209.172 186.665 211.838Z" fill="#f5f0e9"/>
<path transform="matrix(.24793644,0,0,.24793644,133.82004,160.30055)" d="M221.645 78.892C222.68901 78.742 223.733 78.591999 225.07901 78.399 225.322 83.324008 225.55802 88.096 225.807 93.128009 224.132 92.981 222.90001 92.87201 221.669 92.76401 221.57901 92.96701 221.48902 93.170009 221.399 93.37301 223.334 94.24201 225.268 95.11101 227.203 95.98101 227.192 96.10701 227.181 96.23301 227.17 96.35901 225.44 96.24201 223.70999 96.12501 221.98 96.00701 221.86 96.20301 221.741 96.40001 221.621 96.59601 223.158 97.392009 224.614 98.55401 226.248 98.91701 231.134 100.00001 236.44 97.504009 238.711 93.02701 240.808 88.893009 241.833 84.65201 240.036 79.91601 239.065 77.35701 238.691 74.34001 238.916 71.601009 239.86101 60.084009 241.102 48.590005 242.305 37.095006 242.646 33.838006 243.127 30.587006 243.73 27.368004 244.092 25.436005 244.816 23.571003 245.476 21.341004 242.487 17.456004 238.611 14.340004 233.035 14.144003 229.946 14.035003 226.84601 14.046003 223.757 14.160003 219.54901 14.315002 217.104 16.969002 215.327 20.608002 219.728 15.480001 225.159 14.375002 231.383 16.219002 227.458 16.821002 222.808 15.566002 221.17499 20.343003 223.75699 20.343003 226.90499 20.343003 230.32999 20.343003 229.91999 20.664002 229.79799 20.832003 229.64499 20.870003 222.456 22.623003 221.92499 21.726004 221.581 30.362004 221.11699 41.999006 221.493 53.669004 221.536 65.324008 221.54199 66.953 221.707 68.58201 221.80899 70.40101 224.17899 70.61301 226.47499 70.81801 228.84 71.02901 225.754 72.281009 222.866 73.452 219.978 74.62401 220.063 74.69701 220.147 74.77001 220.232 74.84301 223.859 74.53001 227.493 73.91401 231.11299 73.98501 235.34299 74.06801 236.60999 75.37401 237.129 79.51101 237.502 82.47601 237.732 85.50201 237.58699 88.47901 237.409 92.12101 235.46999 94.10301 231.65099 95.01801 235.28299 93.42701 235.50798 90.347019 235.34499 87.110019 235.25399 85.292018 235.16298 83.472019 235.00399 81.65801 234.59099 76.96401 234.05998 76.38101 229.23999 76.65801 226.63399 76.808017 224.062 77.530017 221.47399 77.99401 221.531 78.292 221.588 78.592 221.645 78.892Z" fill="#f5f0e9"/>
<path transform="matrix(.24793644,0,0,.24793644,133.82004,160.30055)" d="M186.444 24.758C190.751 22.816 195.103 21.22 199.78 21.453999 195.786 23.100998 191.736 24.770998 187.686 26.440999 187.792 26.893998 187.897 27.346999 188.003 27.798998 190.77101 27.798998 193.539 27.798998 196.744 27.798998 193.477 29.191998 190.69301 30.378998 187.91 31.566998 187.95401 31.794999 187.99701 32.023 188.041 32.251 188.764 32.319 189.48601 32.387 190.238 32.458 192.322 44.916 194.408 57.381 196.516 69.981 198.23001 69.981 199.748 69.981 202.028 69.981 198.851 71.807 195.992 73.013 194.699 76.555 201.40201 71.59 207.265 71.263 210.084 75.4 213.794 80.844 213.518 89.391 209.28 91.859 212.424 88.228008 210.6 84.514 209.606 80.904 207.886 74.655 202.679 73.421 197.797 77.983 198.26 78.404 199.01399 78.751 199.13899 79.254009 199.59799 81.102008 199.79799 83.01301 200.18999 84.880008 200.55998 86.64001 201.04898 88.37501 201.53899 90.33 200.59499 90.33 199.84198 90.33 199.08899 90.33 199.02599 90.503 198.96399 90.676 198.90099 90.849 200.26599 91.571 201.63098 92.294 202.99599 93.016 202.96698 93.128 202.93799 93.24 202.90799 93.352 201.37499 93.033 199.842 92.714 198.28299 92.39 197.387 95.376 199.646 96.376 201.728 96.766 205.739 97.517 209.578 96.534 212.784 93.959 214.853 92.297 215.299 89.834 215.11299 87.255 213.95899 71.256999 212.77399 55.259996 211.69199 39.256998 211.40299 34.985998 211.458 30.691998 211.30098 26.409996 211.26898 25.534996 211.26898 24.460997 210.79099 23.831997 207.85698 19.973998 203.986 17.777997 199.02599 18.095997 193.88 18.427 189.29 19.956 186.444 24.758Z" fill="#f5f0e9"/>
<path transform="matrix(.24793644,0,0,.24793644,133.82004,160.30055)" d="M173.422 76.044C170.528 73.375 167.549 70.537 164.446 67.841999 163.812 67.29099 162.679 66.968997 161.83 67.058 141.771 69.155 121.961 72.726 102.275 77.066 100.178 77.528 99.297008 78.513 99.093 80.454 98.535 85.776 99.536 90.769008 102.131008 95.467 103.205 97.412 104.54201 97.961009 106.82001 97.514 120.854007 94.762 134.876 91.906 148.98902 89.621 159.14801 87.976009 169.44301 87.163 179.67801 85.987 180.66802 85.873 181.66602 85.819 182.74 85.729999 183.056 83.72099 182.17 83.296 180.448 83.44499 159.623 85.246997 139.019 88.49199 118.584 92.84699 115.020999 93.605998 111.433 94.26899 107.898 95.14199 105.765 95.66899 104.313 95.11099 103.493007 93.11299 102.578 90.88299 101.755008 88.61599 101.082 86.86199 103.102 86.86199 104.806 87.121997 106.405 86.82099 120.728 84.12899 134.996 81.12299 149.358 78.662998 156.98 77.357997 164.756 76.949 172.462 76.135997 172.954 76.085 173.447 76.042 173.422 76.044Z" fill="#f5f0e9"/>
<path transform="matrix(.24793644,0,0,.24793644,133.82004,160.30055)" d="M301.598 71.464C301.598 74.457 301.511 77.35899 301.667 80.248 301.701 80.869 302.52799 81.846 303.137 81.977 311.505 83.777 319.889 85.508998 328.29899 87.1 329.33198 87.295 330.53599 86.583 331.847 86.243 331.576 87.426998 331.37 88.76199 330.961 90.033 329.313 95.158 328.286 95.741 323.123 94.667 316.43598 93.276 309.75599 91.849 303.05299 90.541 302.14299 90.363 301.11698 90.781 300.14399 90.923007 300.16798 91.29301 300.192 91.664 300.215 92.034008 304.099 92.843 307.983 93.65301 311.86799 94.45901 316.951 95.51401 322.02 96.64701 327.12998 97.54301 328.04499 97.70301 329.563 97.18301 330.07099 96.462009 333.589 91.47401 334.70298 85.828 333.74998 79.853008 333.59599 78.88901 332.39299 77.538 331.46397 77.337009 322.03096 75.29401 312.55497 73.451007 303.08998 71.561008 302.748 71.493 302.385 71.512 301.598 71.464Z" fill="#f5f0e9"/>
<path transform="matrix(.24793644,0,0,.24793644,133.82004,160.30055)" d="M182.981 69.473C180.716 69.235 178.241 69.499 176.23 68.656 171.72299 66.767 169.26999 62.672998 166.943 58.600999 166.36 57.580999 165.74399 56.579999 164.87999 55.740999 167.329 61.529 169.54499 67.533 175.25199 71.104 178.34999 73.043 181.72199 72.689998 184.93999 71.139 187.10298 70.096 188.00299 68.266 187.497 65.949 185.187 55.365999 182.818 44.795999 180.448 34.225999 180.27 33.431 179.935 32.67 179.648 31.901999 177.066 24.995999 172.84 23.397999 166.37 26.873999 162.75699 28.814999 160 32.376 159.07599 35.916 160.78499 34.389 162.609 32.074 164.99298 30.824002 167.32698 29.601002 170.23099 29.463002 172.88498 28.848002 172.96198 29.127 173.03899 29.405 173.11598 29.684002 171.66199 30.319003 170.16698 30.876002 168.76598 31.610003 167.42697 32.312005 166.18498 33.199 165.09297 34.502004 166.77297 34.201005 168.45398 33.901 170.13397 33.600004 166.77698 36.267004 167.64397 39.231004 169.26398 42.211004 170.74198 44.929 172.24098 47.644 173.90798 50.248 174.53498 51.227 175.65697 51.889 176.63698 52.772 175.78897 53.882 172.87499 54.381 174.28998 57.353 175.94197 54.29 178.03697 53.035 180.62398 53.477 181.15598 53.568 181.70398 53.710004 182.18099 53.954004 185.36798 55.590005 187.21799 66.088008 184.73299 68.618007 184.27298 69.086009 183.50399 69.25101 182.87799 69.555L182.981 69.473Z" fill="#f5f0e9"/>
<path transform="matrix(.24793644,0,0,.24793644,133.82004,160.30055)" d="M271.777 37.467C271.48503 34.545999 271.19203 31.626 270.9 28.704998 271.146 28.606999 271.392 28.508999 271.637 28.410998 273.125 32.201997 274.61399 35.992998 276.28 40.237 277.07099 40.496 278.533 40.974 279.996 41.453 280.764 28.41 268.307 15.969 256.433 18.089999 254.34302 18.462998 252.41202 19.721999 250.65201 21.172999 252.335 20.808999 254.01902 20.443999 255.70201 20.079998 251.352 23.805998 250.779 24.757998 251.143 28.154999 257.151 26.574 263.559 28.078 271.777 37.467Z" fill="#f5f0e9"/>
<path transform="matrix(.24793644,0,0,.24793644,133.82004,160.30055)" d="M316.671 99.339C315.41999 99.069 314.542 98.88 313.229 98.598 312.755 102.361 312.198 106.006999 311.852 109.673999 310.59999 122.951999 310.011 136.23099 313.257 149.332 313.97 152.211 315.09999 155.081 316.555 157.664 320.051 163.87 325.673 164.942 331.14399 160.33301 333.74998 158.138 336.14399 155.468 337.938 152.582 341.22898 147.288 344.00498 141.674 346.995 136.193 346.72599 136.047 346.456 135.9 346.18699 135.754 345.154 137.75 344.30198 139.869 343.05198 141.719 339.64799 146.754 336.53797 152.099 332.46299 156.545 326.094 163.493 320.39399 162.069 317.27998 153.16699 314.15998 144.24799 313.90699 134.918 314.32899 125.62499 314.679 117.90699 315.64799 110.216999 316.34599 102.51499 316.436 101.53 316.547 100.549 316.671 99.339Z" fill="#f5f0e9"/>
<path transform="matrix(.24793644,0,0,.24793644,133.82004,160.30055)" d="M119.98 98.589C118.511 98.889 117.551 99.084 116.382 99.323 116.922008 104.006 117.527 108.584 117.965007 113.17799 119.076007 124.82099 119.567 136.478 117.116008 148.012 116.44601 151.168 115.285 154.33499 113.73501 157.161 111.48401 161.265 107.76301 162.22 104.074008 159.342 100.68301 156.69699 97.66 153.415 95.05601 149.97499 92.27501 146.30199 90.17501 142.11399 87.78901 138.16999 87.74101 138.24898 87.559009 138.42598 87.59501 138.51299 90.69301 145.94499 94.32701 153.068 100.07901 158.85498 101.34101 160.12499 102.89701 161.19199 104.48601 162.03199 108.12501 163.95598 111.86801 163.54698 114.354007 160.30098 116.461009 157.54898 118.232 154.30399 119.25 150.99999 122.571 140.21599 122.462 129.05899 121.83 117.93698 121.469 111.591 120.635 105.27 119.98 98.589Z" fill="#f5f0e9"/>
<path transform="matrix(.24793644,0,0,.24793644,133.82004,160.30055)" d="M363.99 55.766C364.422 46.484 364.399 37.662 361.94999 29.056 361.28599 26.722 360.29698 24.401 359.02998 22.335 356.04399 17.463 350.92198 16.118 346.40296 19.579998 342.78196 22.353999 339.48997 25.807999 336.81095 29.508 329.98796 38.934 321.86195 58.75 319.36897 70.797 320.37297 71.022998 321.38496 71.251 322.55598 71.515 324.19099 66.472 325.71797 61.544 327.38499 56.664 330.541 47.422 334.249 38.402 339.791 30.307002 341.823 27.339 344.27198 24.514 347.025 22.216002 351.207 18.724 355.525 19.491002 357.827 24.445002 359.943 28.999 361.405 33.978 362.349 38.923 363.367 44.258 363.449 49.771 363.99 55.766Z" fill="#f5f0e9"/>
<path transform="matrix(.24793644,0,0,.24793644,133.82004,160.30055)" d="M68.763 55.687C69.734 48.209 70.467 40.688 71.785 33.271 72.36 30.035 73.788 26.813 75.441 23.937 77.907009 19.646 81.875 18.688 85.536 21.961 89.207 25.244 92.515 29.179 95.112 33.366 101.835 44.204004 105.792 56.262 109.42 68.412 109.703998 69.362 109.993 70.311008 110.31 71.363 111.026 71.292 111.649997 71.266 112.258998 71.159 112.686 71.084 113.093997 70.898998 113.951 70.618999 112.008998 64.834 110.288997 59.095998 108.162998 53.512994 104.06899 42.758996 99.48799 32.222993 91.55699 23.593993 90.09499 22.002993 88.38699 20.530993 86.54399 19.414994 81.52099 16.371994 76.48599 17.497994 73.79999 22.731993 71.96399 26.309994 70.53799 30.331994 70.01599 34.298994 69.08499 41.37899 68.97599 48.566995 68.522998 55.70999 68.603 55.702 68.683 55.695 68.763 55.687Z" fill="#f5f0e9"/>
<path transform="matrix(.24793644,0,0,.24793644,133.82004,160.30055)" d="M99.779 67.842C99.04 65.618007 97.877 63.640005 95.284999 63.538003 92.643 63.434003 91.113 65.395008 90.69199 67.509 89.759998 72.193 88.772998 76.992008 88.85899 81.725009 89.01399 90.259 91.090999 98.51301 95.089 106.12001 96.507999 108.81901 98.324 111.45101 100.478 113.59201 104.076 117.16801 107.989 115.72201 108.982997 110.71401 109.22199 109.50801 109.288997 108.26801 109.032 106.932018 108.371997 108.388019 107.817 109.904018 107.024997 111.28401 105.97599 113.111019 104.479 113.432018 103.11099 111.68401 101.94399 110.193019 100.84599 108.57301 100.091999 106.846019 95.293 95.85502 92.86099 84.35402 93.00099 72.34201 93.01499 71.16601 93.15599 69.97101 93.40899 68.82301 94.20999 65.181018 95.69599 64.68801 98.71399 66.99001 99.075 67.266 99.424 67.558 99.779 67.842Z" fill="#f5f0e9"/>
<path transform="matrix(.24793644,0,0,.24793644,133.82004,160.30055)" d="M324.073 106.948C323.936 110.228 323.613 113.923 327.269 115.203998 330.81303 116.44499 333.048 113.59599 334.87303 111.116 340.36604 103.647998 342.92903 94.993999 343.76103 85.942 344.238 80.759 343.566 75.465007 343.321 70.225 343.28004 69.353 342.85 68.469 342.46903 67.651 341.53404 65.646 340.53804 63.541 337.90104 63.539 335.26203 63.537004 334.00205 65.461 332.88203 67.541 333.13703 67.622 333.303 67.739 333.402 67.697 334.922 67.062 336.433 66.407 337.946 65.756 338.62303 67.475 339.75404 69.156 339.89903 70.918 340.62303 79.744998 338.92204 88.328 336.58003 96.772998 335.61204 100.260997 334.16304 103.619998 332.86204 107.009998 332.47404 108.02 332.00404 109.078998 331.29603 109.868 330.308 110.966999 329.06004 111.83299 327.924 112.798999 326.967 111.673 325.928 110.603 325.083 109.397998 324.586 108.693 324.398 107.772 324.073 106.948Z" fill="#f5f0e9"/>
<path transform="matrix(.24793644,0,0,.24793644,133.82004,160.30055)" d="M259.109 29.213C257.491 33.055 256.027 35.975999 255.095 39.058 254.792 40.060998 255.511 41.975 256.391 42.626 259.65 45.039 263.03599 47.36 266.638 49.203 269.262 50.545 272.586 47.545 272.099 44.125 271.799 42.015 270.756 39.667 269.298 38.139 266.383 35.084 262.953 32.518 259.109 29.213Z" fill="#f5f0e9"/>
<path transform="matrix(.24793644,0,0,.24793644,133.82004,160.30055)" d="M244.409 66.343C245.914 65.795009 246.721 65.501 247.78 65.115009 247.78 69.714008 247.78 74.105 247.78 78.757 247.003 78.587009 246.278 78.428 244.842 78.11301 245.762 79.049 246.323 79.517009 246.75299 80.08401 247.198 80.672008 247.51599 81.35601 247.88999 81.99701 247.27899 82.33801 246.66799 82.67901 245.97098 83.06801 248.16197 84.71901 250.51998 84.40001 252.85698 83.43701 258.44099 81.13601 260.68199 75.500019 261.05198 70.53401 261.09297 69.98501 260.31498 69.24301 259.74998 68.808017 258.76597 68.05202 257.64997 67.46501 256.79298 66.933017 256.43598 70.55901 256.19499 74.13402 255.65998 77.66402 255.52198 78.57602 254.46198 79.349018 253.50698 79.93501 256.25199 75.62201 255.08298 71.17101 254.19498 66.92701 253.449 63.378 248.184 62.871 244.409 66.343Z" fill="#f5f0e9"/>
<path transform="matrix(.24793644,0,0,.24793644,133.82004,160.30055)" d="M425.505 95.249C424.832 99.053 424.186 102.7 423.471 106.736 424.707 106.736 425.844 106.736 427.285 106.736 425.796 111.676 426.02403 117.496 420.353 120.514 421.794 121.911 422.708 122.026 423.836 120.565 424.714 119.428 425.453 118.139 426.022 116.818 428.392 111.316 429.573 105.562007 429.204 99.559 428.996 96.165 428.576 95.749 425.505 95.249Z" fill="#f5f0e9"/>
<path transform="matrix(.24793644,0,0,.24793644,133.82004,160.30055)" d="M13.152 120.574C9.181001 118.968997 6.0810005 112.602 6.0750005 106.798 7.1340005 106.798 8.200001 106.798 9.519 106.798 8.83 102.784999 8.203 99.129 7.566 95.423 5.46 95.04 4.33 95.875 4.092 97.854 3.1339999 105.80299 4.673 113.24 8.814 120.106998 9.876 121.869 11.286 121.969 13.152 120.574Z" fill="#f5f0e9"/>
<path transform="matrix(.24793644,0,0,.24793644,133.82004,160.30055)" d="M182.875 69.555C184.66 67.61 184.908 65.46 183.898 63.043 183.235 61.455999 182.73799 59.797 182.20099 58.159 181.523 56.087 180.27199 55.413003 178.178 56.479 179.295 60.172 180.366 63.866 181.55699 67.520999 181.79399 68.24899 182.493 68.826999 182.98 69.473 182.981 69.473 182.875 69.555 182.875 69.555Z" fill="#f5f0e9"/>
<path transform="matrix(.24793644,0,0,.24793644,133.82004,160.30055)" d="M247.004 51.896C245.75299 55.814 248.028 60.508 243.824 63.161 246.468 62.569 249.03202 61.996 251.67201 61.405 250.24 58.488 248.674 55.298 247.004 51.896Z" fill="#f5f0e9"/>
<path transform="matrix(.24793644,0,0,.24793644,133.82004,160.30055)" d="M30.754 52.871C32.221 51.887998 33.495 50.619 35.023 50.098 38.171998 49.025 41.105 51.397 41.042 54.715 40.505 82.959 46.429 110.07 55.506 136.613 56.181 138.58602 55.697004 139.837 54.118 140.759 50.984 142.588 47.779 142.97 44.537 140.675 44.470998 140.989 44.301 141.29001 44.389 141.45 49.344 150.484 54.170999 159.659 61.504999 167.037 64.256999 169.80501 67.724 172.149 71.284999 173.756 75.461 175.64099 79.377 173.93199 82.641 169.915 79.687999 166.63399 76.671 163.37999 73.762 160.03099 64.555 149.43 58.654 137.086 55.062 123.63199 49.295 102.03199 44.382 80.28299 44.746004 57.71099 44.922 46.798994 46.297 36.09899 50.129 25.81999 50.671 24.36699 50.353 23.70199 49.001005 23.09799 45.042005 21.33199 40.497 22.62599 37.989004 26.51099 34.710004 31.59099 33.439004 37.39499 32.320005 43.21899 31.703 46.431 31.266 49.679 30.754 52.871Z"/>
<path transform="matrix(.24793644,0,0,.24793644,133.82004,160.30055)" d="M27.602 143.623C28.701 145.762 29.387 147.655 30.529 149.215 33.962999 153.90599 37.259 158.759 41.197999 163.00299 46.015 168.19399 49.226999 167.818 53.925 162.74399 29.69 125.504 22.616 84.894 28.766 41.48 22.485 39.555 17.794 41.545 15.386001 47.618 14.165001 50.696 13.575001 54.023 13.261001 57.427003 14.420001 56.339 15.412001 54.868005 16.784 54.273004 18.133 53.688005 19.967001 53.618005 21.407002 54.001005 23.134 54.461004 23.227002 56.159006 23.118002 57.852006 21.307002 86.18001 26.368002 113.36101 36.775 139.667 37.260004 140.893 37.304 143.13301 36.56 143.809 35.398004 144.865 33.398004 145.324 31.727002 145.39 30.551 145.437 29.331 144.411 27.602 143.623Z"/>
<path transform="matrix(.24793644,0,0,.24793644,133.82004,160.30055)" d="M107.049 172.017C98 169.94499 92.318 163.736 87.694 156.67 83.573 150.373 80.298007 143.521 76.683 136.895 76.137 135.895 75.770999 134.797 75.286998 133.664 71.689998 138.594 69.13699 139.228 63.083997 136.384 64.451 139.061 65.510997 141.32901 66.737 143.503 71.826 152.52501 77.782 160.893 85.616 167.78 89.422 171.12599 93.601 173.81 98.71 174.80699 101.974 175.445 104.565 174.392 107.049 172.017Z"/>
<path transform="matrix(.24793644,0,0,.24793644,133.82004,160.30055)" d="M48.589 49.879C52.461004 45.329004 54.409 45.13 59.315004 48.263 59.980005 43.302003 60.487005 38.370004 61.333005 33.497 62.461004 27.006 64.226009 20.692002 68.097 15.197002 71 11.077003 73.2 9.695003 78.055 8.746002 74.713 5.34 67.312 4.945 62.471 8.244 60.572004 9.538 58.839 11.346001 57.596 13.282001 52.708 20.901001 50.96 29.567002 49.811 38.376 49.344 41.965 49.041 45.576 48.589 49.879Z"/>
<path transform="matrix(.24793644,0,0,.24793644,133.82004,160.30055)" d="M382.83 23.878C384.305 30.302 386.07899 36.432 387.07398 42.686 389.22398 56.204004 388.62898 69.775 386.58497 83.254 384.07197 99.83099 380.70698 116.235 375.24397 132.136 370.93998 144.664 363.95698 155.545 354.77598 165.059 353.27198 166.61801 351.85899 168.265 350.41798 169.85501 353.58396 174.091 357.87998 175.68302 362.44197 173.49901 365.73796 171.921 368.93995 169.712 371.49497 167.11002 378.90397 159.56201 383.74797 150.22202 388.66297 141.56702 386.14897 141.63402 383.51597 142.08702 381.02296 141.67902 377.51496 141.10402 376.75196 139.07701 377.86897 135.74402 386.56697 109.777019 392.39598 83.28802 391.98197 55.724023 391.94197 53.03902 392.44798 50.966024 395.14698 50.12702 397.68797 49.33702 399.791 50.216024 401.32698 52.404024 401.46699 52.603025 401.66099 52.763025 402.21199 53.34402 401.05299 44.10802 399.90199 35.38202 395.66398 27.472022 392.854 22.219 387.896 20.993 382.83 23.878Z"/>
<path transform="matrix(.24793644,0,0,.24793644,133.82004,160.30055)" d="M379.038 162.88C379.663 163.406 380.643 164.366 381.75199 165.141 384.719 167.214 386.92799 167.214 389.71699 164.93001 396.61799 159.279 401.42298 152.06801 405.37498 143.65001 403.85899 144.36101 402.80397 145.001 401.65998 145.35901 399.68998 145.977 397.88999 145.62201 396.425 144.01702 395.076 142.53902 395.57499 141.11002 396.223 139.48702 406.72999 113.13301 411.809 85.86902 409.87599 57.444017 409.65199 54.146017 412.77098 52.263017 415.869 54.010019 417.319 54.82802 418.447 56.21702 419.668 57.29902 420.108 53.275018 417.973 46.537019 415.223 43.664018 412.054 40.353017 408.206 40.375017 404.212 41.326017 410.44 84.851 403.32 125.349 379.038 162.88Z"/>
<path transform="matrix(.24793644,0,0,.24793644,133.82004,160.30055)" d="M369.572 136.515C363.87 139.275 361.102 138.59799 357.913 133.753 350.461 149.043 344.111 165.225 326.34199 172.38 328.40599 174.39 330.955 175.416 334.145 174.835 340.05299 173.759 344.692 170.438 348.896 166.44 357.58799 158.176 364.168 148.394 369.288 137.597 369.429 137.301 369.46 136.954 369.572 136.515Z"/>
<path transform="matrix(.24793644,0,0,.24793644,133.82004,160.30055)" d="M384.325 48.931C383.086 36.503 382.217 23.675 374.957 12.459 370.539 5.634 361.04 3.9189997 354.401 8.861 360.241 9.035 363.58 12.617001 366.145 17.075 370.513 24.666 371.942 33.108 372.916 41.653 373.163 43.821 373.331 45.998 373.51298 47.94 375.45198 47.331998 377.42799 46.143999 379.29798 46.291 381.029 46.426 382.647 47.99 384.325 48.931Z"/>
</g>
<g clip-path="url(#clip_3)">
<text xml:space="preserve" transform="matrix(.41054283 -.57922986 .57922986 .41054283 96.59496 134.96312)" font-size="39.98" font-family="YearbookSolid"><tspan y="35" x="0">F</tspan></text>
<text xml:space="preserve" transform="matrix(.5584233 -.43842454 .43842454 .5584233 118.62666 109.1055)" font-size="39.98" font-family="YearbookSolid"><tspan y="35" x="0">I</tspan></text>
<text xml:space="preserve" transform="matrix(.6628003 -.254457 .254457 .6628003 141.02869 94.001598)" font-size="39.98" font-family="YearbookSolid"><tspan y="35" x="0">T</tspan></text>
<text xml:space="preserve" transform="matrix(.7099022 -.009565122 .009565122 .7099022 176.55988 83.81521)" font-size="39.98" font-family="YearbookSolid"><tspan y="35" x="0">N</tspan></text>
<text xml:space="preserve" transform="matrix(.6718448 .22951515 -.22951515 .6718448 213.69243 86.64865)" font-size="39.98" font-family="YearbookSolid"><tspan y="35" x="0">E</tspan></text>
<text xml:space="preserve" transform="matrix(.5651076 .42977438 -.42977438 .5651076 245.29758 100.614429)" font-size="39.98" font-family="YearbookSolid"><tspan y="35" x="0">S</tspan></text>
<text xml:space="preserve" transform="matrix(.40560413 .5826988 -.5826988 .40560413 269.72135 122.68152)" font-size="39.98" font-family="YearbookSolid"><tspan y="35" x="0">S</tspan></text>
<text xml:space="preserve" transform="matrix(.2844633 0 0 .2844633 86.48513 176.99733)" font-size="39.98" font-family="YearbookSolid"><tspan y="39" x="6.484375 47.54003 86.477359">FSA</tspan></text>
<text xml:space="preserve" transform="matrix(.36750839 .6074456 -.6074456 .36750839 121.8878 213.81194)" font-size="39.98" font-family="YearbookSolid"><tspan y="35" x="0">J</tspan></text>
<text xml:space="preserve" transform="matrix(.54326876 .45706854 -.45706854 .54326876 136.03423 234.47449)" font-size="39.98" font-family="YearbookSolid"><tspan y="35" x="0">O</tspan></text>
<text xml:space="preserve" transform="matrix(.6628003 .25445698 -.25445698 .6628003 153.17151 247.84816)" font-size="39.98" font-family="YearbookSolid"><tspan y="35" x="0">U</tspan></text>
<text xml:space="preserve" transform="matrix(.7098716 .011614578 -.011614578 .7098716 177.58104 255.86106)" font-size="39.98" font-family="YearbookSolid"><tspan y="35" x="0">R</tspan></text>
<text xml:space="preserve" transform="matrix(.670919 -.23220733 .23220733 .670919 202.08011 255.19403)" font-size="39.98" font-family="YearbookSolid"><tspan y="35" x="0">N</tspan></text>
<text xml:space="preserve" transform="matrix(.55389347 -.4441336 .4441336 .55389347 225.87496 245.52576)" font-size="39.98" font-family="YearbookSolid"><tspan y="35" x="0">E</tspan></text>
<text xml:space="preserve" transform="matrix(.37149505 -.6050157 .6050157 .37149505 243.51799 230.17296)" font-size="39.98" font-family="YearbookSolid"><tspan y="35" x="0">Y</tspan></text>
<text xml:space="preserve" transform="matrix(.2844633 0 0 .2844633 261.1586 176.99733)" font-size="39.98" font-family="YearbookSolid"><tspan y="39" x="6.484375 47.54003 86.477359">FSA</tspan></text>
</g>
</svg>
